<?xml version="1.0" encoding="utf-8" ?>
<svg baseProfile="full" height="1024" version="1.1" width="1024" xmlns="http://www.w3.org/2000/svg" xmlns:ev="http://www.w3.org/2001/xml-events" xmlns:xlink="http://www.w3.org/1999/xlink"><defs /><polygon fill="none" points="277.5,86.0 277.0,40.5 274.5,62.0 277.5,86.0" stroke="black" stroke-width="1" /><polygon fill="none" points="220.5,60.0 220.5,44.0 218.0,43.5 216.5,56.0 217.5,60.0 220.5,60.0" stroke="black" stroke-width="1" /><polygon fill="none" points="249.5,61.0 251.5,46.0 246.0,43.5 245.5,58.0 249.5,61.0" stroke="black" stroke-width="1" /><polygon fill="none" points="746.5,79.0 746.0,43.5 746.5,79.0" stroke="black" stroke-width="1" /><polygon fill="none" points="800.5,60.0 800.5,44.0 797.0,43.5 795.5,59.0 800.5,60.0" stroke="black" stroke-width="1" /><polygon fill="none" points="115.5,60.0 116.0,44.5 113.5,48.0 115.5,60.0" stroke="black" stroke-width="1" /><polygon fill="none" points="774.5,60.0 775.5,47.0 771.0,44.5 769.5,59.0 774.5,60.0" stroke="black" stroke-width="1" /><polygon fill="none" points="909.5,60.0 908.0,44.5 905.5,51.0 906.5,59.0 909.5,60.0" stroke="black" stroke-width="1" /><polygon fill="none" points="135.5,59.0 132.0,52.5 121.5,52.0 135.0,52.5 137.0,46.5 120.5,47.0 121.0,58.5 135.5,59.0" stroke="black" stroke-width="1" /><polygon fill="none" points="875.5,60.0 875.0,45.5 872.5,59.0 875.5,60.0" stroke="black" stroke-width="1" /><polygon fill="none" points="901.5,59.0 903.0,45.5 886.5,47.0 887.0,51.5 898.5,52.0 890.0,52.5 890.0,59.5 901.5,59.0" stroke="black" stroke-width="1" /><polygon fill="none" points="142.5,60.0 142.0,46.5 139.5,60.0 142.5,60.0" stroke="black" stroke-width="1" /><polygon fill="none" points="191.5,61.0 192.5,53.0 199.0,52.5 200.0,46.5 187.5,47.0 188.5,58.0 191.5,61.0" stroke="black" stroke-width="1" /><polygon fill="none" points="831.5,60.0 834.5,58.0 834.5,47.0 822.0,46.5 821.5,52.0 831.5,60.0" stroke="black" stroke-width="1" /><polygon fill="none" points="494.5,66.0 503.0,55.5 520.0,55.5 520.5,51.0 517.0,48.5 501.0,50.5 491.5,63.0 491.5,66.0 494.5,66.0" stroke="black" stroke-width="1" /><polygon fill="none" points="882.5,60.0 884.5,50.0 882.0,48.5 882.5,60.0" stroke="black" stroke-width="1" /><polygon fill="none" points="151.5,59.0 150.0,50.5 148.5,59.0 151.5,59.0" stroke="black" stroke-width="1" /><polygon fill="none" points="883.0,52.5 883.0,52.5" stroke="black" stroke-width="1" /><polygon fill="none" points="179.5,57.0 179.5,57.0" stroke="black" stroke-width="1" /><polygon fill="none" points="363.5,216.0 373.5,205.0 364.5,190.0 358.5,169.0 361.5,142.0 375.0,122.5 395.0,113.5 421.0,116.5 439.0,126.5 455.0,141.5 476.0,133.5 498.0,129.5 535.0,130.5 568.0,141.5 584.0,126.5 602.0,116.5 613.0,113.5 636.0,115.5 655.5,131.0 663.5,149.0 662.5,179.0 649.5,204.0 660.0,215.5 675.5,178.0 677.5,147.0 674.5,136.0 662.5,117.0 650.0,106.5 631.0,99.5 619.0,98.5 598.0,102.5 577.0,113.5 565.0,124.5 543.0,117.5 522.0,115.5 492.0,115.5 458.0,124.5 428.0,103.5 407.0,98.5 390.0,99.5 371.0,107.5 356.5,121.0 345.5,146.0 346.5,175.0 363.5,216.0" stroke="black" stroke-width="1" /><polygon fill="none" points="102.5,133.0 104.5,123.0 102.0,121.5 83.5,124.0 88.0,130.5 93.0,127.5 96.0,133.5 102.5,133.0" stroke="black" stroke-width="1" /><polygon fill="none" points="928.5,133.0 931.0,127.5 938.0,129.5 939.5,128.0 936.5,127.0 939.5,124.0 935.0,121.5 920.0,122.5 920.5,132.0 928.5,133.0" stroke="black" stroke-width="1" /><polygon fill="none" points="700.5,167.0 734.0,136.5 761.5,135.0 759.0,131.5 731.0,132.5 700.5,161.0 697.5,165.0 700.5,167.0" stroke="black" stroke-width="1" /><polygon fill="none" points="324.5,167.0 323.5,163.0 291.0,132.5 272.0,131.5 259.5,135.0 289.0,136.5 315.0,161.5 324.5,167.0" stroke="black" stroke-width="1" /><polygon fill="none" points="384.5,188.0 391.5,180.0 388.0,180.5 386.0,176.5 396.0,171.5 402.5,172.0 394.0,165.5 392.0,168.5 390.0,163.5 385.5,165.0 384.5,172.0 387.5,154.0 391.5,146.0 396.0,146.5 399.0,140.5 411.0,141.5 438.5,156.0 426.0,142.5 414.0,135.5 403.0,132.5 392.0,135.5 383.5,145.0 378.5,160.0 378.5,174.0 384.5,188.0" stroke="black" stroke-width="1" /><polygon fill="none" points="639.5,187.0 643.5,178.0 644.5,161.0 639.5,145.0 632.0,136.5 622.0,132.5 609.0,135.5 587.5,152.0 587.0,155.5 607.0,143.5 625.0,140.5 632.5,148.0 638.5,161.0 638.0,164.5 633.5,165.0 637.0,164.5 636.0,167.5 627.5,171.0 635.5,176.0 636.5,180.0 632.5,181.0 639.5,187.0" stroke="black" stroke-width="1" /><polygon fill="none" points="290.0,134.5 290.0,134.5" stroke="black" stroke-width="1" /><polygon fill="none" points="102.5,149.0 103.5,139.0 95.0,138.5 94.5,147.0 102.5,149.0" stroke="black" stroke-width="1" /><polygon fill="none" points="927.5,148.0 929.5,141.0 932.5,140.0 921.0,138.5 920.5,147.0 927.5,148.0" stroke="black" stroke-width="1" /><polygon fill="none" points="90.5,144.0 91.0,139.5 83.5,140.0 90.5,144.0" stroke="black" stroke-width="1" /><polygon fill="none" points="398.5,147.0 398.5,147.0" stroke="black" stroke-width="1" /><polygon fill="none" points="101.5,161.0 103.5,152.0 95.0,151.5 94.5,160.0 101.5,161.0" stroke="black" stroke-width="1" /><polygon fill="none" points="926.5,161.0 929.5,159.0 929.5,153.0 935.0,153.5 934.0,151.5 920.5,152.0 920.5,160.0 926.5,161.0" stroke="black" stroke-width="1" /><polygon fill="none" points="89.5,153.0 86.5,153.0 89.5,153.0" stroke="black" stroke-width="1" /><polygon fill="none" points="300.5,179.0 301.5,177.0 299.0,177.5 287.0,163.5 283.0,163.5 285.5,162.0 274.0,152.5 199.0,152.5 192.5,155.0 271.0,156.5 279.0,163.5 280.0,161.5 294.0,177.5 296.0,175.5 300.5,179.0" stroke="black" stroke-width="1" /><polygon fill="none" points="430.5,195.0 443.0,180.5 456.0,171.5 478.0,163.5 509.0,158.5 509.5,153.0 483.0,153.5 448.0,164.5 434.5,184.0 430.5,195.0" stroke="black" stroke-width="1" /><polygon fill="none" points="593.5,195.0 576.0,165.5 546.0,154.5 513.5,154.0 515.0,159.5 543.0,162.5 569.0,172.5 593.5,195.0" stroke="black" stroke-width="1" /><polygon fill="none" points="836.5,156.0 834.0,152.5 748.0,152.5 745.5,155.0 836.5,156.0" stroke="black" stroke-width="1" /><polygon fill="none" points="742.5,159.0 744.0,155.5 742.5,159.0" stroke="black" stroke-width="1" /><polygon fill="none" points="281.0,160.5 281.0,160.5" stroke="black" stroke-width="1" /><polygon fill="none" points="738.5,162.0 738.5,162.0" stroke="black" stroke-width="1" /><polygon fill="none" points="741.5,161.0 741.5,161.0" stroke="black" stroke-width="1" /><polygon fill="none" points="103.5,173.0 102.0,163.5 94.5,165.0 96.0,173.5 103.5,173.0" stroke="black" stroke-width="1" /><polygon fill="none" points="632.5,164.0 632.5,164.0" stroke="black" stroke-width="1" /><polygon fill="none" points="720.5,182.0 740.5,164.0 734.0,164.5 724.0,176.5 723.0,174.5 714.5,181.0 720.5,182.0" stroke="black" stroke-width="1" /><polygon fill="none" points="928.5,173.0 929.5,165.0 922.0,163.5 920.5,172.0 928.5,173.0" stroke="black" stroke-width="1" /><polygon fill="none" points="91.5,165.0 83.5,165.0 91.5,165.0" stroke="black" stroke-width="1" /><polygon fill="none" points="287.0,165.5 287.0,165.5" stroke="black" stroke-width="1" /><polygon fill="none" points="289.0,167.5 288.0,165.5 289.0,167.5" stroke="black" stroke-width="1" /><polygon fill="none" points="639.0,166.5 639.0,166.5" stroke="black" stroke-width="1" /><polygon fill="none" points="90.5,167.0 87.5,167.0 90.5,167.0" stroke="black" stroke-width="1" /><polygon fill="none" points="287.0,168.5 287.0,168.5" stroke="black" stroke-width="1" /><polygon fill="none" points="390.0,172.5 389.0,167.5 391.5,169.0 390.0,172.5" stroke="black" stroke-width="1" /><polygon fill="none" points="396.0,169.5 396.0,169.5" stroke="black" stroke-width="1" /><polygon fill="none" points="387.0,170.5 387.0,170.5" stroke="black" stroke-width="1" /><polygon fill="none" points="393.0,172.5 394.0,169.5 393.0,172.5" stroke="black" stroke-width="1" /><polygon fill="none" points="622.5,171.0 622.5,171.0" stroke="black" stroke-width="1" /><polygon fill="none" points="295.5,171.0 295.5,171.0" stroke="black" stroke-width="1" /><polygon fill="none" points="292.0,172.5 292.0,172.5" stroke="black" stroke-width="1" /><polygon fill="none" points="172.5,174.0 172.5,174.0" stroke="black" stroke-width="1" /><polygon fill="none" points="294.0,174.5 294.0,174.5" stroke="black" stroke-width="1" /><polygon fill="none" points="841.5,179.0 847.0,178.5 848.5,175.0 800.0,175.5 798.5,178.0 841.5,179.0" stroke="black" stroke-width="1" /><polygon fill="none" points="727.0,175.5 727.0,175.5" stroke="black" stroke-width="1" /><polygon fill="none" points="225.5,179.0 224.0,175.5 172.5,176.0 176.0,178.5 225.5,179.0" stroke="black" stroke-width="1" /><polygon fill="none" points="307.5,182.0 302.5,178.0 307.5,182.0" stroke="black" stroke-width="1" /><polygon fill="none" points="394.5,180.0 394.5,180.0" stroke="black" stroke-width="1" /><polygon fill="none" points="446.5,202.0 466.0,190.5 509.0,185.5 509.5,181.0 492.0,180.5 471.0,184.5 453.0,193.5 446.5,202.0" stroke="black" stroke-width="1" /><polygon fill="none" points="578.5,203.0 568.0,191.5 556.0,185.5 532.0,180.5 513.5,181.0 517.0,185.5 559.0,191.5 578.5,203.0" stroke="black" stroke-width="1" /><polygon fill="none" points="634.0,181.5 634.0,181.5" stroke="black" stroke-width="1" /><polygon fill="none" points="103.5,189.0 102.0,181.5 82.5,185.0 83.0,188.5 88.0,189.5 103.5,189.0" stroke="black" stroke-width="1" /><polygon fill="none" points="304.5,182.0 304.5,182.0" stroke="black" stroke-width="1" /><polygon fill="none" points="925.5,190.0 936.0,189.5 938.5,186.0 937.0,183.5 922.0,182.5 920.5,189.0 925.5,190.0" stroke="black" stroke-width="1" /><polygon fill="none" points="637.0,184.5 637.0,184.5" stroke="black" stroke-width="1" /><polygon fill="none" points="116.5,204.0 116.5,204.0" stroke="black" stroke-width="1" /><polygon fill="none" points="206.5,208.0 211.5,205.0 127.0,203.5 122.5,208.0 206.5,208.0" stroke="black" stroke-width="1" /><polygon fill="none" points="898.5,208.0 904.5,205.0 811.5,205.0 827.0,208.5 898.5,208.0" stroke="black" stroke-width="1" /><polygon fill="none" points="319.5,264.0 323.5,262.0 324.5,257.0 308.5,239.0 309.5,220.0 306.5,213.0 295.0,204.5 277.0,207.5 268.5,222.0 273.5,239.0 283.0,245.5 299.0,247.5 319.5,264.0" stroke="black" stroke-width="1" /><polygon fill="none" points="703.5,266.0 724.0,247.5 740.0,245.5 749.5,238.0 754.5,223.0 745.0,207.5 728.0,204.5 717.5,211.0 712.5,225.0 713.5,241.0 697.5,258.0 703.5,266.0" stroke="black" stroke-width="1" /><polygon fill="none" points="120.5,207.0 122.5,206.0 120.5,207.0" stroke="black" stroke-width="1" /><polygon fill="none" points="125.0,207.5 125.0,207.5" stroke="black" stroke-width="1" /><polygon fill="none" points="290.0,233.5 283.0,231.5 278.5,225.0 279.5,217.0 287.0,212.5 296.0,214.5 300.5,221.0 298.5,228.0 290.0,233.5" stroke="black" stroke-width="1" /><polygon fill="none" points="462.5,240.0 467.5,231.0 477.0,223.5 509.5,214.0 495.0,213.5 477.0,218.5 464.5,229.0 462.5,240.0" stroke="black" stroke-width="1" /><polygon fill="none" points="735.0,233.5 727.0,231.5 722.5,225.0 723.5,218.0 731.0,212.5 738.0,213.5 743.5,220.0 742.5,228.0 735.0,233.5" stroke="black" stroke-width="1" /><polygon fill="none" points="561.5,239.0 558.5,229.0 550.0,220.5 529.0,213.5 513.5,214.0 547.0,224.5 561.5,239.0" stroke="black" stroke-width="1" /><polygon fill="none" points="434.5,459.0 415.5,421.0 437.5,432.0 394.5,380.0 369.0,336.5 365.5,379.0 357.5,351.0 361.0,293.5 344.5,313.0 346.5,294.0 353.5,271.0 363.5,250.0 376.5,232.0 375.0,230.5 354.5,251.0 340.5,278.0 332.5,319.0 335.5,349.0 343.0,333.5 347.5,369.0 365.5,403.0 374.0,413.5 378.0,390.5 391.5,419.0 418.0,446.5 434.5,459.0" stroke="black" stroke-width="1" /><polygon fill="none" points="589.5,459.0 625.5,426.0 635.5,413.0 645.0,390.5 649.0,413.5 655.5,406.0 675.5,370.0 680.0,333.5 687.5,349.0 689.5,310.0 684.5,284.0 668.5,251.0 649.0,231.5 647.5,233.0 668.5,269.0 679.5,315.0 662.0,294.5 665.5,348.0 657.5,379.0 656.5,350.0 653.0,336.5 650.5,347.0 648.5,346.0 626.5,381.0 588.5,429.0 588.0,431.5 608.5,420.0 589.5,459.0" stroke="black" stroke-width="1" /><polygon fill="none" points="225.5,320.0 226.5,251.0 211.0,234.5 129.5,235.0 130.0,319.5 225.5,320.0" stroke="black" stroke-width="1" /><polygon fill="none" points="892.5,320.0 893.0,234.5 812.0,234.5 796.5,252.0 797.0,319.5 892.5,320.0" stroke="black" stroke-width="1" /><polygon fill="none" points="479.5,274.0 479.5,256.0 467.0,244.5 449.0,238.5 439.0,238.5 436.0,243.5 418.5,237.0 419.5,246.0 429.0,255.5 456.0,257.5 470.0,264.5 479.5,274.0" stroke="black" stroke-width="1" /><polygon fill="none" points="545.5,273.0 562.0,259.5 594.0,255.5 603.5,247.0 605.5,237.0 587.0,243.5 583.0,238.5 574.0,238.5 553.0,246.5 543.5,258.0 545.5,273.0" stroke="black" stroke-width="1" /><polygon fill="none" points="212.0,311.5 143.0,311.5 139.5,307.0 139.5,245.0 207.0,243.5 216.5,254.0 216.5,308.0 212.0,311.5" stroke="black" stroke-width="1" /><polygon fill="none" points="879.0,311.5 808.0,310.5 805.5,307.0 807.5,252.0 816.0,243.5 883.0,244.5 883.5,305.0 879.0,311.5" stroke="black" stroke-width="1" /><polygon fill="none" points="203.5,301.0 206.5,297.0 205.0,253.5 156.0,252.5 151.5,255.0 151.5,299.0 154.0,301.5 203.5,301.0" stroke="black" stroke-width="1" /><polygon fill="none" points="868.5,301.0 871.5,298.0 871.5,257.0 869.0,252.5 823.0,252.5 816.5,255.0 816.5,298.0 819.0,301.5 868.5,301.0" stroke="black" stroke-width="1" /><polygon fill="none" points="320.0,261.5 320.0,261.5" stroke="black" stroke-width="1" /><polygon fill="none" points="319.0,262.5 319.0,262.5" stroke="black" stroke-width="1" /><polygon fill="none" points="498.5,263.0 498.5,263.0" stroke="black" stroke-width="1" /><polygon fill="none" points="702.0,264.5 702.0,264.5" stroke="black" stroke-width="1" /><polygon fill="none" points="321.5,266.0 321.5,266.0" stroke="black" stroke-width="1" /><polygon fill="none" points="420.5,365.0 420.5,357.0 399.5,341.0 387.5,319.0 385.5,299.0 394.0,264.5 386.5,268.0 377.5,289.0 378.5,329.0 393.0,353.5 406.0,361.5 420.5,365.0" stroke="black" stroke-width="1" /><polygon fill="none" points="311.5,302.0 312.5,297.0 287.5,276.0 284.0,267.5 276.0,265.5 271.5,268.0 269.5,279.0 272.0,282.5 283.0,285.5 286.0,281.5 297.0,294.5 306.0,301.5 311.5,302.0" stroke="black" stroke-width="1" /><polygon fill="none" points="604.5,365.0 629.0,354.5 638.5,343.0 645.5,327.0 647.5,302.0 644.5,285.0 636.5,268.0 630.0,265.5 637.5,296.0 636.5,316.0 624.5,340.0 602.5,357.0 604.5,365.0" stroke="black" stroke-width="1" /><polygon fill="none" points="713.5,309.0 739.0,283.5 747.0,284.5 752.5,280.0 753.5,272.0 749.0,266.5 740.0,266.5 735.5,277.0 710.5,297.0 713.5,309.0" stroke="black" stroke-width="1" /><polygon fill="none" points="154.0,267.5 154.0,267.5" stroke="black" stroke-width="1" /><polygon fill="none" points="462.5,301.0 464.0,291.5 444.0,289.5 436.5,282.0 433.0,272.5 419.5,267.0 421.5,279.0 432.0,294.5 446.0,301.5 462.5,301.0" stroke="black" stroke-width="1" /><polygon fill="none" points="456.5,272.0 458.5,269.0 453.0,266.5 452.5,271.0 456.5,272.0" stroke="black" stroke-width="1" /><polygon fill="none" points="570.5,273.0 572.5,268.0 567.0,266.5 566.5,273.0 570.5,273.0" stroke="black" stroke-width="1" /><polygon fill="none" points="576.5,301.0 587.0,297.5 596.5,288.0 604.0,266.5 590.0,272.5 582.0,287.5 573.0,291.5 558.5,292.0 558.0,300.5 576.5,301.0" stroke="black" stroke-width="1" /><polygon fill="none" points="819.0,268.5 819.0,268.5" stroke="black" stroke-width="1" /><polygon fill="none" points="634.0,269.5 634.0,269.5" stroke="black" stroke-width="1" /><polygon fill="none" points="738.0,283.5 737.0,281.5 738.0,283.5" stroke="black" stroke-width="1" /><polygon fill="none" points="287.0,284.5 287.0,284.5" stroke="black" stroke-width="1" /><polygon fill="none" points="735.0,284.5 735.0,284.5" stroke="black" stroke-width="1" /><polygon fill="none" points="737.0,286.5 736.0,284.5 737.0,286.5" stroke="black" stroke-width="1" /><polygon fill="none" points="290.0,286.5 290.0,286.5" stroke="black" stroke-width="1" /><polygon fill="none" points="731.0,287.5 731.0,287.5" stroke="black" stroke-width="1" /><polygon fill="none" points="734.0,287.5 734.0,287.5" stroke="black" stroke-width="1" /><polygon fill="none" points="736.0,287.5 736.0,287.5" stroke="black" stroke-width="1" /><polygon fill="none" points="295.0,291.5 295.0,291.5" stroke="black" stroke-width="1" /><polygon fill="none" points="730.0,292.5 730.0,292.5" stroke="black" stroke-width="1" /><polygon fill="none" points="728.0,294.5 728.0,294.5" stroke="black" stroke-width="1" /><polygon fill="none" points="727.0,295.5 727.0,295.5" stroke="black" stroke-width="1" /><polygon fill="none" points="818.0,295.5 818.0,295.5" stroke="black" stroke-width="1" /><polygon fill="none" points="155.0,296.5 155.0,296.5" stroke="black" stroke-width="1" /><polygon fill="none" points="819.0,296.5 819.0,296.5" stroke="black" stroke-width="1" /><polygon fill="none" points="819.0,298.5 819.0,298.5" stroke="black" stroke-width="1" /><polygon fill="none" points="75.5,306.0 80.5,304.0 78.0,298.5 53.5,300.0 57.0,304.5 75.5,306.0" stroke="black" stroke-width="1" /><polygon fill="none" points="947.5,306.0 965.0,305.5 969.5,301.0 944.0,298.5 943.5,304.0 947.5,306.0" stroke="black" stroke-width="1" /><polygon fill="none" points="301.5,301.0 301.5,301.0" stroke="black" stroke-width="1" /><polygon fill="none" points="719.0,303.5 719.0,303.5" stroke="black" stroke-width="1" /><polygon fill="none" points="716.0,305.5 716.0,305.5" stroke="black" stroke-width="1" /><polygon fill="none" points="310.5,309.0 310.5,309.0" stroke="black" stroke-width="1" /><polygon fill="none" points="960.5,311.0 960.5,311.0" stroke="black" stroke-width="1" /><polygon fill="none" points="955.5,315.0 955.5,315.0" stroke="black" stroke-width="1" /><polygon fill="none" points="319.5,371.0 311.5,353.0 299.0,342.5 287.0,336.5 281.0,329.5 273.0,329.5 269.5,333.0 268.5,342.0 272.0,346.5 282.0,347.5 287.0,341.5 288.0,346.5 291.0,344.5 295.0,350.5 299.0,350.5 304.0,360.5 308.0,363.5 312.0,361.5 312.5,367.0 319.5,371.0" stroke="black" stroke-width="1" /><polygon fill="none" points="707.5,370.0 719.0,357.5 723.0,357.5 734.0,348.5 736.0,342.5 741.0,347.5 749.0,347.5 753.5,343.0 753.5,334.0 749.0,329.5 741.0,329.5 736.0,336.5 712.5,353.0 706.5,365.0 707.5,370.0" stroke="black" stroke-width="1" /><polygon fill="none" points="141.5,395.0 141.5,336.0 130.0,335.5 130.5,384.0 136.5,386.0 130.5,387.0 130.5,395.0 141.5,395.0" stroke="black" stroke-width="1" /><polygon fill="none" points="155.5,396.0 159.5,395.0 157.5,393.0 160.0,387.5 162.5,395.0 165.0,335.5 154.5,336.0 154.5,382.0 159.5,382.0 154.5,388.0 155.5,396.0" stroke="black" stroke-width="1" /><polygon fill="none" points="293.5,474.0 294.5,467.0 287.0,460.5 254.0,459.5 189.5,397.0 189.5,336.0 179.0,335.5 178.5,403.0 251.0,473.5 293.5,474.0" stroke="black" stroke-width="1" /><polygon fill="none" points="308.5,449.0 310.5,436.0 289.0,416.5 246.0,415.5 213.5,385.0 213.5,336.0 202.0,335.5 201.5,391.0 244.0,428.5 286.0,428.5 308.5,449.0" stroke="black" stroke-width="1" /><polygon fill="none" points="715.5,449.0 738.0,428.5 779.0,428.5 820.5,392.0 820.0,335.5 809.5,336.0 809.5,384.0 776.0,415.5 733.0,416.5 711.5,436.0 715.5,449.0" stroke="black" stroke-width="1" /><polygon fill="none" points="729.5,474.0 772.0,473.5 843.5,403.0 844.0,335.5 833.5,336.0 833.5,396.0 766.0,461.5 733.0,461.5 727.5,467.0 729.5,474.0" stroke="black" stroke-width="1" /><polygon fill="none" points="868.5,395.0 868.5,336.0 858.0,335.5 860.5,395.0 868.5,395.0" stroke="black" stroke-width="1" /><polygon fill="none" points="889.5,409.0 893.5,405.0 892.5,398.0 884.0,396.5 883.0,399.5 882.5,396.0 893.5,394.0 893.5,387.0 889.5,386.0 893.5,384.0 893.5,336.0 882.0,335.5 881.5,404.0 889.5,409.0" stroke="black" stroke-width="1" /><polygon fill="none" points="372.0,343.5 372.0,343.5" stroke="black" stroke-width="1" /><polygon fill="none" points="651.0,344.5 651.0,344.5" stroke="black" stroke-width="1" /><polygon fill="none" points="373.0,346.5 373.0,346.5" stroke="black" stroke-width="1" /><polygon fill="none" points="734.0,346.5 734.0,346.5" stroke="black" stroke-width="1" /><polygon fill="none" points="513.5,358.0 528.0,354.5 530.5,348.0 529.0,346.5 521.0,353.5 508.0,355.5 492.5,347.0 495.0,354.5 513.5,358.0" stroke="black" stroke-width="1" /><polygon fill="none" points="732.0,348.5 731.0,346.5 732.0,348.5" stroke="black" stroke-width="1" /><polygon fill="none" points="374.0,348.5 374.0,348.5" stroke="black" stroke-width="1" /><polygon fill="none" points="648.0,352.5 649.0,347.5 648.0,352.5" stroke="black" stroke-width="1" /><polygon fill="none" points="730.0,348.5 730.0,348.5" stroke="black" stroke-width="1" /><polygon fill="none" points="291.5,349.0 291.5,349.0" stroke="black" stroke-width="1" /><polygon fill="none" points="296.0,349.5 296.0,349.5" stroke="black" stroke-width="1" /><polygon fill="none" points="728.0,349.5 728.0,349.5" stroke="black" stroke-width="1" /><polygon fill="none" points="731.0,349.5 731.0,349.5" stroke="black" stroke-width="1" /><polygon fill="none" points="297.0,350.5 297.0,350.5" stroke="black" stroke-width="1" /><polygon fill="none" points="375.0,351.5 375.0,351.5" stroke="black" stroke-width="1" /><polygon fill="none" points="295.5,352.0 295.5,352.0" stroke="black" stroke-width="1" /><polygon fill="none" points="647.0,354.5 647.0,354.5" stroke="black" stroke-width="1" /><polygon fill="none" points="299.5,354.0 299.5,354.0" stroke="black" stroke-width="1" /><polygon fill="none" points="646.0,356.5 646.0,356.5" stroke="black" stroke-width="1" /><polygon fill="none" points="723.0,356.5 723.0,356.5" stroke="black" stroke-width="1" /><polygon fill="none" points="311.0,356.5 311.0,356.5" stroke="black" stroke-width="1" /><polygon fill="none" points="377.0,356.5 377.0,356.5" stroke="black" stroke-width="1" /><polygon fill="none" points="303.0,358.5 303.0,358.5" stroke="black" stroke-width="1" /><polygon fill="none" points="714.0,358.5 714.0,358.5" stroke="black" stroke-width="1" /><polygon fill="none" points="382.0,359.5 382.0,359.5" stroke="black" stroke-width="1" /><polygon fill="none" points="645.0,359.5 645.0,359.5" stroke="black" stroke-width="1" /><polygon fill="none" points="715.0,359.5 715.0,359.5" stroke="black" stroke-width="1" /><polygon fill="none" points="718.0,359.5 718.0,359.5" stroke="black" stroke-width="1" /><polygon fill="none" points="306.0,360.5 306.0,360.5" stroke="black" stroke-width="1" /><polygon fill="none" points="313.0,360.5 313.0,360.5" stroke="black" stroke-width="1" /><polygon fill="none" points="478.5,412.0 495.0,405.5 503.5,396.0 503.5,392.0 483.0,378.5 475.0,367.5 467.0,365.5 464.5,371.0 461.0,371.5 439.0,359.5 436.5,372.0 439.0,374.5 470.5,384.0 437.0,381.5 442.0,392.5 469.5,396.0 444.0,398.5 445.5,403.0 458.0,411.5 478.5,412.0" stroke="black" stroke-width="1" /><polygon fill="none" points="560.5,412.0 571.0,408.5 579.5,400.0 561.0,398.5 554.5,395.0 582.0,392.5 585.5,383.0 552.5,384.0 583.0,375.5 585.5,373.0 583.0,359.5 560.0,372.5 556.0,364.5 547.0,367.5 541.0,377.5 519.5,392.0 521.5,399.0 538.0,410.5 560.5,412.0" stroke="black" stroke-width="1" /><polygon fill="none" points="711.0,360.5 711.0,360.5" stroke="black" stroke-width="1" /><polygon fill="none" points="714.0,360.5 714.0,360.5" stroke="black" stroke-width="1" /><polygon fill="none" points="56.5,383.0 66.0,370.5 76.0,365.5 89.0,367.5 100.0,378.5 102.5,376.0 92.0,363.5 78.0,360.5 61.5,369.0 56.5,383.0" stroke="black" stroke-width="1" /><polygon fill="none" points="307.0,361.5 307.0,361.5" stroke="black" stroke-width="1" /><polygon fill="none" points="309.0,361.5 309.0,361.5" stroke="black" stroke-width="1" /><polygon fill="none" points="712.0,361.5 712.0,361.5" stroke="black" stroke-width="1" /><polygon fill="none" points="714.0,363.5 716.0,360.5 714.0,363.5" stroke="black" stroke-width="1" /><polygon fill="none" points="966.5,383.0 961.5,370.0 946.0,360.5 931.0,363.5 920.5,375.0 921.0,378.5 924.0,377.5 934.0,367.5 946.0,365.5 958.0,371.5 966.5,383.0" stroke="black" stroke-width="1" /><polygon fill="none" points="308.0,362.5 308.0,362.5" stroke="black" stroke-width="1" /><polygon fill="none" points="710.0,362.5 710.0,362.5" stroke="black" stroke-width="1" /><polygon fill="none" points="712.0,364.5 709.5,364.0 712.0,364.5" stroke="black" stroke-width="1" /><polygon fill="none" points="315.0,367.5 315.0,363.5 315.0,367.5" stroke="black" stroke-width="1" /><polygon fill="none" points="310.5,365.0 310.5,365.0" stroke="black" stroke-width="1" /><polygon fill="none" points="709.0,366.5 709.0,366.5" stroke="black" stroke-width="1" /><polygon fill="none" points="708.0,367.5 708.0,367.5" stroke="black" stroke-width="1" /><polygon fill="none" points="69.5,379.0 77.0,373.5 86.5,372.0 74.0,371.5 67.5,378.0 69.5,379.0" stroke="black" stroke-width="1" /><polygon fill="none" points="316.5,417.0 319.5,409.0 287.0,371.5 261.5,373.0 264.0,376.5 275.0,376.5 316.5,417.0" stroke="black" stroke-width="1" /><polygon fill="none" points="704.5,372.0 704.5,372.0" stroke="black" stroke-width="1" /><polygon fill="none" points="706.5,417.0 750.0,376.5 763.0,377.5 765.5,373.0 739.0,370.5 734.0,373.5 703.5,409.0 706.5,417.0" stroke="black" stroke-width="1" /><polygon fill="none" points="951.5,377.0 949.0,371.5 933.5,373.0 951.5,377.0" stroke="black" stroke-width="1" /><polygon fill="none" points="766.5,375.0 766.5,375.0" stroke="black" stroke-width="1" /><polygon fill="none" points="656.0,381.5 656.0,381.5" stroke="black" stroke-width="1" /><polygon fill="none" points="867.0,389.5 866.5,383.0 865.0,389.5 864.5,383.0 861.5,382.0 865.0,379.5 867.5,380.0 867.0,389.5" stroke="black" stroke-width="1" /><polygon fill="none" points="396.0,382.5 396.0,382.5" stroke="black" stroke-width="1" /><polygon fill="none" points="397.0,383.5 397.0,383.5" stroke="black" stroke-width="1" /><polygon fill="none" points="888.0,386.5 887.0,384.5 888.0,386.5" stroke="black" stroke-width="1" /><polygon fill="none" points="302.0,390.5 302.0,390.5" stroke="black" stroke-width="1" /><polygon fill="none" points="401.0,390.5 401.0,390.5" stroke="black" stroke-width="1" /><polygon fill="none" points="480.0,396.5 477.0,392.5 480.5,393.0 480.0,396.5" stroke="black" stroke-width="1" /><polygon fill="none" points="546.0,395.5 542.5,393.0 546.0,392.5 546.0,395.5" stroke="black" stroke-width="1" /><polygon fill="none" points="867.0,394.5 867.0,394.5" stroke="black" stroke-width="1" /><polygon fill="none" points="156.0,394.5 156.0,394.5" stroke="black" stroke-width="1" /><polygon fill="none" points="479.5,394.0 479.5,394.0" stroke="black" stroke-width="1" /><polygon fill="none" points="136.5,409.0 141.5,402.0 138.5,401.0 139.0,397.5 133.0,396.5 130.5,405.0 136.5,409.0" stroke="black" stroke-width="1" /><polygon fill="none" points="135.0,398.5 135.0,398.5" stroke="black" stroke-width="1" /><polygon fill="none" points="160.5,409.0 165.5,404.0 162.0,397.5 154.5,402.0 160.5,409.0" stroke="black" stroke-width="1" /><polygon fill="none" points="864.5,409.0 868.5,401.0 866.0,398.5 863.0,400.5 862.0,397.5 857.5,404.0 864.5,409.0" stroke="black" stroke-width="1" /><polygon fill="none" points="864.5,398.0 864.5,398.0" stroke="black" stroke-width="1" /><polygon fill="none" points="160.0,399.5 160.0,399.5" stroke="black" stroke-width="1" /><polygon fill="none" points="137.0,400.5 137.0,400.5" stroke="black" stroke-width="1" /><polygon fill="none" points="858.5,400.0 858.5,400.0" stroke="black" stroke-width="1" /><polygon fill="none" points="866.0,400.5 866.0,400.5" stroke="black" stroke-width="1" /><polygon fill="none" points="158.0,401.5 158.0,401.5" stroke="black" stroke-width="1" /><polygon fill="none" points="160.0,401.5 160.0,401.5" stroke="black" stroke-width="1" /><polygon fill="none" points="862.0,402.5 862.0,402.5" stroke="black" stroke-width="1" /><polygon fill="none" points="161.0,403.5 161.0,403.5" stroke="black" stroke-width="1" /><polygon fill="none" points="311.0,403.5 311.0,403.5" stroke="black" stroke-width="1" /><polygon fill="none" points="712.0,403.5 712.0,403.5" stroke="black" stroke-width="1" /><polygon fill="none" points="860.0,404.5 860.0,404.5" stroke="black" stroke-width="1" /><polygon fill="none" points="863.0,404.5 863.0,404.5" stroke="black" stroke-width="1" /><polygon fill="none" points="865.0,405.5 865.0,405.5" stroke="black" stroke-width="1" /><polygon fill="none" points="158.0,406.5 158.0,406.5" stroke="black" stroke-width="1" /><polygon fill="none" points="314.0,405.5 314.0,405.5" stroke="black" stroke-width="1" /><polygon fill="none" points="861.0,405.5 861.0,405.5" stroke="black" stroke-width="1" /><polygon fill="none" points="310.0,406.5 310.0,406.5" stroke="black" stroke-width="1" /><polygon fill="none" points="313.0,406.5 313.0,406.5" stroke="black" stroke-width="1" /><polygon fill="none" points="315.0,406.5 315.0,406.5" stroke="black" stroke-width="1" /><polygon fill="none" points="308.0,407.5 308.0,407.5" stroke="black" stroke-width="1" /><polygon fill="none" points="711.0,407.5 711.0,407.5" stroke="black" stroke-width="1" /><polygon fill="none" points="311.0,408.5 311.0,408.5" stroke="black" stroke-width="1" /><polygon fill="none" points="314.0,408.5 314.0,408.5" stroke="black" stroke-width="1" /><polygon fill="none" points="316.0,409.5 316.0,409.5" stroke="black" stroke-width="1" /><polygon fill="none" points="863.0,408.5 863.0,408.5" stroke="black" stroke-width="1" /><polygon fill="none" points="310.0,409.5 310.0,409.5" stroke="black" stroke-width="1" /><polygon fill="none" points="313.0,409.5 313.0,409.5" stroke="black" stroke-width="1" /><polygon fill="none" points="318.0,409.5 318.0,409.5" stroke="black" stroke-width="1" /><polygon fill="none" points="713.0,409.5 713.0,409.5" stroke="black" stroke-width="1" /><polygon fill="none" points="312.0,411.5 312.0,411.5" stroke="black" stroke-width="1" /><polygon fill="none" points="314.0,411.5 314.0,411.5" stroke="black" stroke-width="1" /><polygon fill="none" points="313.0,412.5 313.0,412.5" stroke="black" stroke-width="1" /><polygon fill="none" points="523.5,459.0 541.0,452.5 548.5,445.0 553.5,436.0 554.0,425.5 530.0,421.5 511.0,411.5 493.0,421.5 468.5,426.0 472.5,442.0 484.0,453.5 502.0,459.5 523.5,459.0" stroke="black" stroke-width="1" /><polygon fill="none" points="314.0,414.5 314.0,414.5" stroke="black" stroke-width="1" /><polygon fill="none" points="707.0,415.5 707.0,415.5" stroke="black" stroke-width="1" /><polygon fill="none" points="168.5,438.0 166.5,436.0 169.5,436.0 164.0,433.5 77.5,437.0 168.5,438.0" stroke="black" stroke-width="1" /><polygon fill="none" points="935.5,437.0 914.0,434.5 854.5,436.0 935.5,437.0" stroke="black" stroke-width="1" /><polygon fill="none" points="852.5,438.0 852.5,438.0" stroke="black" stroke-width="1" /><polygon fill="none" points="305.0,444.5 302.5,443.0 305.0,444.5" stroke="black" stroke-width="1" /><polygon fill="none" points="307.0,445.5 307.0,445.5" stroke="black" stroke-width="1" /><polygon fill="none" points="844.5,445.0 844.5,445.0" stroke="black" stroke-width="1" /><polygon fill="none" points="181.5,447.0 179.5,446.0 181.5,447.0" stroke="black" stroke-width="1" /><polygon fill="none" points="819.5,468.0 826.0,465.5 825.5,463.0 832.0,460.5 843.5,448.0 840.0,447.5 819.5,468.0" stroke="black" stroke-width="1" /><polygon fill="none" points="183.5,448.0 183.5,448.0" stroke="black" stroke-width="1" /><polygon fill="none" points="204.5,467.0 187.0,451.5 181.5,450.0 198.0,466.5 204.5,467.0" stroke="black" stroke-width="1" /><polygon fill="none" points="184.0,451.5 184.0,451.5" stroke="black" stroke-width="1" /><polygon fill="none" points="186.0,453.5 186.0,453.5" stroke="black" stroke-width="1" /><polygon fill="none" points="187.0,454.5 187.0,454.5" stroke="black" stroke-width="1" /><polygon fill="none" points="151.5,467.0 144.0,457.5 138.0,455.5 66.5,460.0 141.0,460.5 151.5,467.0" stroke="black" stroke-width="1" /><polygon fill="none" points="874.5,465.0 886.0,460.5 967.5,459.0 883.0,456.5 877.0,459.5 874.5,465.0" stroke="black" stroke-width="1" /><polygon fill="none" points="193.0,458.5 193.0,458.5" stroke="black" stroke-width="1" /><polygon fill="none" points="63.5,460.0 59.5,460.0 63.5,460.0" stroke="black" stroke-width="1" /><polygon fill="none" points="192.0,459.5 192.0,459.5" stroke="black" stroke-width="1" /><polygon fill="none" points="194.0,459.5 194.0,459.5" stroke="black" stroke-width="1" /><polygon fill="none" points="830.0,459.5 830.0,459.5" stroke="black" stroke-width="1" /><polygon fill="none" points="193.0,460.5 193.0,460.5" stroke="black" stroke-width="1" /><polygon fill="none" points="195.0,462.5 195.0,462.5" stroke="black" stroke-width="1" /><polygon fill="none" points="197.0,463.5 197.0,463.5" stroke="black" stroke-width="1" /><polygon fill="none" points="872.5,464.0 872.5,464.0" stroke="black" stroke-width="1" /><polygon fill="none" points="816.5,470.0 816.5,470.0" stroke="black" stroke-width="1" /><polygon fill="none" points="111.5,499.0 92.0,496.5 51.5,498.0 111.5,499.0" stroke="black" stroke-width="1" /><polygon fill="none" points="460.5,582.0 449.5,561.0 447.5,541.0 451.5,527.0 467.0,511.5 478.0,508.5 492.0,510.5 513.0,526.5 527.0,512.5 546.0,508.5 561.0,513.5 575.0,528.5 566.5,514.0 574.5,516.0 568.5,511.0 570.0,508.5 575.5,512.0 566.0,501.5 553.0,496.5 529.0,500.5 512.0,514.5 498.0,502.5 482.0,496.5 470.0,496.5 453.0,503.5 444.5,511.0 437.5,524.0 435.5,551.0 438.5,559.0 440.0,553.5 450.5,572.0 460.5,582.0" stroke="black" stroke-width="1" /><polygon fill="none" points="969.5,500.0 967.0,496.5 936.0,496.5 940.5,498.0 931.5,499.0 969.5,500.0" stroke="black" stroke-width="1" /><polygon fill="none" points="184.5,555.0 194.0,551.5 204.5,540.0 207.5,531.0 206.5,519.0 202.5,510.0 192.0,500.5 181.0,497.5 169.0,498.5 153.5,510.0 149.5,520.0 149.5,532.0 154.5,543.0 162.0,550.5 175.0,555.5 184.5,555.0" stroke="black" stroke-width="1" /><polygon fill="none" points="849.5,555.0 861.0,550.5 869.5,542.0 874.5,524.0 870.5,511.0 864.0,503.5 855.0,498.5 841.0,497.5 831.0,500.5 821.5,509.0 816.5,519.0 815.5,532.0 819.5,542.0 828.0,551.5 839.0,555.5 849.5,555.0" stroke="black" stroke-width="1" /><polygon fill="none" points="927.5,499.0 924.5,499.0 927.5,499.0" stroke="black" stroke-width="1" /><polygon fill="none" points="566.0,513.5 566.0,513.5" stroke="black" stroke-width="1" /><polygon fill="none" points="280.5,529.0 284.0,514.5 223.5,515.0 229.0,529.5 280.5,529.0" stroke="black" stroke-width="1" /><polygon fill="none" points="794.5,529.0 798.0,514.5 736.5,515.0 740.0,529.5 794.5,529.0" stroke="black" stroke-width="1" /><polygon fill="none" points="36.5,532.0 40.5,527.0 39.0,523.5 34.0,522.5 29.5,528.0 36.5,532.0" stroke="black" stroke-width="1" /><polygon fill="none" points="990.5,532.0 993.5,527.0 991.0,523.5 981.5,526.0 985.0,532.5 990.5,532.0" stroke="black" stroke-width="1" /><polygon fill="none" points="282.5,551.0 282.0,540.5 227.5,541.0 228.0,551.5 282.5,551.0" stroke="black" stroke-width="1" /><polygon fill="none" points="794.5,551.0 794.0,540.5 739.5,541.0 740.0,551.5 794.5,551.0" stroke="black" stroke-width="1" /><polygon fill="none" points="822.0,543.5 822.0,543.5" stroke="black" stroke-width="1" /><polygon fill="none" points="823.0,544.5 823.0,544.5" stroke="black" stroke-width="1" /><polygon fill="none" points="824.0,545.5 824.0,545.5" stroke="black" stroke-width="1" /><polygon fill="none" points="827.0,548.5 827.0,548.5" stroke="black" stroke-width="1" /><polygon fill="none" points="829.0,550.5 829.0,550.5" stroke="black" stroke-width="1" /><polygon fill="none" points="87.5,565.0 88.5,559.0 86.0,556.5 63.5,558.0 64.0,562.5 87.5,565.0" stroke="black" stroke-width="1" /><polygon fill="none" points="146.5,561.0 143.0,557.5 127.5,558.0 133.0,561.5 146.5,561.0" stroke="black" stroke-width="1" /><polygon fill="none" points="883.5,561.0 894.5,559.0 880.0,557.5 876.5,561.0 883.5,561.0" stroke="black" stroke-width="1" /><polygon fill="none" points="941.5,566.0 943.0,562.5 957.0,562.5 958.5,559.0 935.0,557.5 934.5,565.0 941.5,566.0" stroke="black" stroke-width="1" /><polygon fill="none" points="40.5,566.0 39.0,558.5 30.5,560.0 33.0,566.5 40.5,566.0" stroke="black" stroke-width="1" /><polygon fill="none" points="991.5,565.0 990.0,559.5 980.5,560.0 982.0,565.5 991.5,565.0" stroke="black" stroke-width="1" /><polygon fill="none" points="575.5,560.0 575.5,560.0" stroke="black" stroke-width="1" /><polygon fill="none" points="565.5,579.0 576.0,561.5 565.5,579.0" stroke="black" stroke-width="1" /><polygon fill="none" points="148.5,563.0 148.5,563.0" stroke="black" stroke-width="1" /><polygon fill="none" points="119.5,570.0 119.0,564.5 109.5,566.0 111.0,570.5 119.5,570.0" stroke="black" stroke-width="1" /><polygon fill="none" points="910.5,569.0 911.0,564.5 903.5,567.0 910.5,569.0" stroke="black" stroke-width="1" /><polygon fill="none" points="171.5,599.0 197.0,579.5 281.0,579.5 281.5,567.0 198.0,567.5 172.0,587.5 127.5,588.0 130.0,591.5 165.0,590.5 159.0,591.5 151.5,599.0 171.5,599.0" stroke="black" stroke-width="1" /><polygon fill="none" points="891.5,599.0 894.0,587.5 851.0,587.5 826.0,567.5 740.5,567.0 741.0,579.5 826.0,579.5 849.0,597.5 891.5,599.0" stroke="black" stroke-width="1" /><polygon fill="none" points="885.5,569.0 885.5,569.0" stroke="black" stroke-width="1" /><polygon fill="none" points="887.5,569.0 887.5,569.0" stroke="black" stroke-width="1" /><polygon fill="none" points="87.5,578.0 88.5,571.0 86.0,569.5 63.5,572.0 64.0,576.5 87.5,578.0" stroke="black" stroke-width="1" /><polygon fill="none" points="943.5,577.0 957.0,576.5 958.5,573.0 934.5,570.0 935.0,577.5 943.5,577.0" stroke="black" stroke-width="1" /><polygon fill="none" points="563.5,581.0 563.5,581.0" stroke="black" stroke-width="1" /><polygon fill="none" points="40.5,589.0 40.0,582.5 30.5,583.0 33.0,589.5 40.5,589.0" stroke="black" stroke-width="1" /><polygon fill="none" points="87.5,591.0 88.0,582.5 63.5,585.0 64.0,589.5 80.0,588.5 82.0,591.5 87.5,591.0" stroke="black" stroke-width="1" /><polygon fill="none" points="941.5,591.0 943.0,588.5 957.0,588.5 957.5,585.0 935.0,582.5 934.5,590.0 941.5,591.0" stroke="black" stroke-width="1" /><polygon fill="none" points="989.5,589.0 992.5,587.0 991.0,583.5 981.5,583.0 983.0,589.5 989.5,589.0" stroke="black" stroke-width="1" /><polygon fill="none" points="169.0,591.5 169.0,591.5" stroke="black" stroke-width="1" /><polygon fill="none" points="306.5,657.0 333.0,627.5 360.0,609.5 394.0,596.5 422.5,592.0 391.0,591.5 352.0,604.5 319.5,630.0 307.5,650.0 306.5,657.0" stroke="black" stroke-width="1" /><polygon fill="none" points="717.5,656.0 703.5,630.0 687.0,614.5 671.0,604.5 632.0,591.5 601.5,592.0 640.0,599.5 669.0,612.5 695.0,631.5 717.5,656.0" stroke="black" stroke-width="1" /><polygon fill="none" points="889.0,593.5 871.5,593.0 883.0,590.5 889.0,593.5" stroke="black" stroke-width="1" /><polygon fill="none" points="889.0,591.5 889.0,591.5" stroke="black" stroke-width="1" /><polygon fill="none" points="117.5,598.0 119.0,591.5 111.5,593.0 111.0,597.5 117.5,598.0" stroke="black" stroke-width="1" /><polygon fill="none" points="157.5,592.0 157.5,592.0" stroke="black" stroke-width="1" /><polygon fill="none" points="170.5,629.0 204.0,603.5 282.0,602.5 282.5,593.0 202.0,591.5 173.0,616.5 126.5,618.0 129.0,620.5 167.0,620.5 164.5,622.0 169.0,622.5 168.0,624.5 151.5,629.0 170.5,629.0" stroke="black" stroke-width="1" /><polygon fill="none" points="885.5,629.0 854.5,627.0 860.5,623.0 856.0,620.5 893.0,620.5 894.0,616.5 849.0,616.5 821.0,591.5 739.5,592.0 740.0,602.5 817.0,602.5 852.0,629.5 885.5,629.0" stroke="black" stroke-width="1" /><polygon fill="none" points="855.0,592.5 855.0,592.5" stroke="black" stroke-width="1" /><polygon fill="none" points="868.0,594.5 868.0,591.5 868.0,594.5" stroke="black" stroke-width="1" /><polygon fill="none" points="170.0,593.5 170.0,593.5" stroke="black" stroke-width="1" /><polygon fill="none" points="909.5,599.0 912.5,598.0 912.5,594.0 911.0,592.5 909.0,596.5 906.5,595.0 909.0,592.5 904.0,592.5 904.5,598.0 909.5,599.0" stroke="black" stroke-width="1" /><polygon fill="none" points="172.0,594.5 172.0,594.5" stroke="black" stroke-width="1" /><polygon fill="none" points="175.0,595.5 175.0,595.5" stroke="black" stroke-width="1" /><polygon fill="none" points="850.0,596.5 850.0,596.5" stroke="black" stroke-width="1" /><polygon fill="none" points="854.0,596.5 854.0,596.5" stroke="black" stroke-width="1" /><polygon fill="none" points="941.5,604.0 943.0,601.5 957.0,602.5 957.5,598.0 935.0,595.5 934.5,603.0 941.5,604.0" stroke="black" stroke-width="1" /><polygon fill="none" points="86.5,604.0 88.0,596.5 63.5,598.0 65.0,602.5 86.5,604.0" stroke="black" stroke-width="1" /><polygon fill="none" points="40.5,609.0 38.0,602.5 30.5,604.0 32.0,609.5 40.5,609.0" stroke="black" stroke-width="1" /><polygon fill="none" points="658.5,614.0 650.0,608.5 629.5,603.0 658.5,614.0" stroke="black" stroke-width="1" /><polygon fill="none" points="990.5,609.0 992.5,607.0 990.0,603.5 980.5,605.0 982.0,608.5 990.5,609.0" stroke="black" stroke-width="1" /><polygon fill="none" points="367.5,614.0 389.5,604.0 364.5,614.0 367.5,614.0" stroke="black" stroke-width="1" /><polygon fill="none" points="941.5,608.0 938.5,608.0 941.5,608.0" stroke="black" stroke-width="1" /><polygon fill="none" points="939.5,617.0 957.0,615.5 958.5,612.0 935.0,608.5 934.5,616.0 939.5,617.0" stroke="black" stroke-width="1" /><polygon fill="none" points="87.5,617.0 88.0,609.5 63.5,611.0 64.0,615.5 79.0,613.5 82.0,617.5 87.5,617.0" stroke="black" stroke-width="1" /><polygon fill="none" points="78.0,612.5 78.0,612.5" stroke="black" stroke-width="1" /><polygon fill="none" points="266.5,631.0 271.5,628.0 272.5,623.0 268.0,618.5 263.0,618.5 258.5,625.0 261.0,629.5 266.5,631.0" stroke="black" stroke-width="1" /><polygon fill="none" points="760.5,630.0 763.5,627.0 762.5,621.0 754.0,618.5 750.5,627.0 754.0,630.5 760.5,630.0" stroke="black" stroke-width="1" /><polygon fill="none" points="86.5,630.0 87.0,621.5 63.5,624.0 65.0,628.5 86.5,630.0" stroke="black" stroke-width="1" /><polygon fill="none" points="120.5,628.0 120.0,622.5 110.5,623.0 111.0,628.5 120.5,628.0" stroke="black" stroke-width="1" /><polygon fill="none" points="853.0,622.5 853.0,622.5" stroke="black" stroke-width="1" /><polygon fill="none" points="863.5,622.0 863.5,622.0" stroke="black" stroke-width="1" /><polygon fill="none" points="911.5,627.0 913.5,624.0 911.0,621.5 902.5,623.0 903.0,627.5 911.5,627.0" stroke="black" stroke-width="1" /><polygon fill="none" points="938.5,630.0 943.0,626.5 957.0,628.5 957.5,624.0 935.0,621.5 934.5,629.0 938.5,630.0" stroke="black" stroke-width="1" /><polygon fill="none" points="850.0,623.5 850.0,623.5" stroke="black" stroke-width="1" /><polygon fill="none" points="36.5,631.0 40.5,626.0 33.0,623.5 31.5,631.0 36.5,631.0" stroke="black" stroke-width="1" /><polygon fill="none" points="847.0,624.5 847.0,624.5" stroke="black" stroke-width="1" /><polygon fill="none" points="855.0,624.5 855.0,624.5" stroke="black" stroke-width="1" /><polygon fill="none" points="991.5,632.0 991.0,625.5 981.5,624.0 983.0,631.5 991.5,632.0" stroke="black" stroke-width="1" /><polygon fill="none" points="170.0,626.5 169.0,624.5 170.0,626.5" stroke="black" stroke-width="1" /><polygon fill="none" points="849.0,625.5 849.0,625.5" stroke="black" stroke-width="1" /><polygon fill="none" points="173.0,626.5 173.0,626.5" stroke="black" stroke-width="1" /><polygon fill="none" points="168.0,628.5 168.0,628.5" stroke="black" stroke-width="1" /><polygon fill="none" points="335.5,692.0 349.5,672.0 366.0,656.5 383.0,645.5 424.5,627.0 404.0,630.5 365.0,650.5 342.5,673.0 335.5,692.0" stroke="black" stroke-width="1" /><polygon fill="none" points="852.0,627.5 852.0,627.5" stroke="black" stroke-width="1" /><polygon fill="none" points="688.5,691.0 677.5,669.0 653.0,646.5 622.0,631.5 599.5,628.0 655.0,654.5 670.5,668.0 688.5,691.0" stroke="black" stroke-width="1" /><polygon fill="none" points="255.5,753.0 256.0,733.5 312.5,733.0 304.0,722.5 255.5,722.0 256.0,708.5 293.5,708.0 287.0,696.5 255.5,696.0 256.0,681.5 281.5,681.0 278.0,669.5 255.5,669.0 255.5,656.0 277.0,655.5 278.0,642.5 264.0,642.5 259.0,646.5 243.5,648.0 242.5,751.0 244.0,753.5 255.5,753.0" stroke="black" stroke-width="1" /><polygon fill="none" points="778.5,753.0 778.5,648.0 764.0,646.5 758.0,642.5 745.0,642.5 746.0,655.5 766.5,656.0 766.5,669.0 745.0,669.5 741.5,681.0 766.0,681.5 766.5,696.0 738.0,696.5 729.5,707.0 766.0,708.5 766.5,722.0 718.0,722.5 710.5,733.0 766.0,733.5 766.5,753.0 778.5,753.0" stroke="black" stroke-width="1" /><polygon fill="none" points="371.5,660.0 396.5,645.0 382.0,650.5 371.5,660.0" stroke="black" stroke-width="1" /><polygon fill="none" points="652.5,661.0 642.0,651.5 626.5,645.0 652.5,661.0" stroke="black" stroke-width="1" /><polygon fill="none" points="178.5,647.0 178.5,647.0" stroke="black" stroke-width="1" /><polygon fill="none" points="147.5,652.0 140.5,651.0 176.5,648.0 108.0,647.5 104.5,650.0 108.0,652.5 147.5,652.0" stroke="black" stroke-width="1" /><polygon fill="none" points="327.5,648.0 327.5,648.0" stroke="black" stroke-width="1" /><polygon fill="none" points="914.5,653.0 913.0,650.5 917.5,650.0 915.0,647.5 856.0,647.5 863.5,651.0 850.5,652.0 914.5,653.0" stroke="black" stroke-width="1" /><polygon fill="none" points="871.0,649.5 868.5,649.0 871.0,649.5" stroke="black" stroke-width="1" /><polygon fill="none" points="127.0,651.5 107.5,650.0 127.0,651.5" stroke="black" stroke-width="1" /><polygon fill="none" points="912.0,650.5 912.0,650.5" stroke="black" stroke-width="1" /><polygon fill="none" points="325.5,651.0 325.5,651.0" stroke="black" stroke-width="1" /><polygon fill="none" points="375.5,705.0 415.5,672.0 390.0,685.5 376.5,700.0 375.5,705.0" stroke="black" stroke-width="1" /><polygon fill="none" points="358.5,675.0 359.0,672.5 358.5,675.0" stroke="black" stroke-width="1" /><polygon fill="none" points="648.5,705.0 635.0,687.5 610.5,673.0 648.5,705.0" stroke="black" stroke-width="1" /><polygon fill="none" points="351.5,684.0 351.5,684.0" stroke="black" stroke-width="1" /><polygon fill="none" points="183.5,705.0 186.5,698.0 178.0,697.5 176.5,702.0 183.5,705.0" stroke="black" stroke-width="1" /><polygon fill="none" points="391.5,700.0 392.0,696.5 389.5,698.0 391.5,700.0" stroke="black" stroke-width="1" /><polygon fill="none" points="840.5,705.0 844.5,699.0 836.0,696.5 834.5,704.0 840.5,705.0" stroke="black" stroke-width="1" /><polygon fill="none" points="583.5,736.0 548.0,719.5 513.0,697.5 476.0,719.5 442.5,735.0 583.5,736.0" stroke="black" stroke-width="1" /><polygon fill="none" points="98.5,838.0 98.5,728.0 62.0,727.5 68.0,734.5 92.5,734.0 92.5,838.0 98.5,838.0" stroke="black" stroke-width="1" /><polygon fill="none" points="930.5,838.0 929.5,735.0 956.0,733.5 960.0,727.5 923.5,728.0 923.5,838.0 930.5,838.0" stroke="black" stroke-width="1" /><polygon fill="none" points="626.5,858.0 647.5,851.0 648.5,808.0 625.5,808.0 625.5,825.0 630.5,825.0 630.0,838.5 617.0,839.5 611.5,835.0 611.5,792.0 620.0,786.5 629.0,786.5 644.5,793.0 644.0,771.5 632.0,767.5 617.0,767.5 603.0,772.5 593.5,784.0 591.5,833.0 596.5,847.0 604.0,854.5 626.5,858.0" stroke="black" stroke-width="1" /><polygon fill="none" points="310.5,857.0 297.5,829.0 309.5,809.0 309.5,789.0 304.5,778.0 288.0,768.5 251.0,768.5 250.5,856.0 269.0,857.5 269.5,833.0 279.0,832.5 290.0,856.5 310.5,857.0" stroke="black" stroke-width="1" /><polygon fill="none" points="379.5,857.0 379.0,838.5 341.5,839.0 343.0,822.5 364.5,822.0 364.5,805.0 342.0,804.5 341.5,788.0 379.0,787.5 379.5,769.0 323.0,768.5 322.5,856.0 379.5,857.0" stroke="black" stroke-width="1" /><polygon fill="none" points="423.5,857.0 439.0,851.5 447.5,839.0 450.5,825.0 448.5,787.0 443.5,778.0 431.0,769.5 392.0,768.5 391.5,856.0 423.5,857.0" stroke="black" stroke-width="1" /><polygon fill="none" points="579.5,857.0 579.5,769.0 561.0,768.5 560.5,856.0 579.5,857.0" stroke="black" stroke-width="1" /><polygon fill="none" points="712.5,857.0 712.0,838.5 680.0,839.5 678.5,824.0 700.0,822.5 701.5,815.0 701.0,804.5 679.5,804.0 679.5,788.0 712.0,787.5 713.5,769.0 661.0,768.5 660.5,857.0 712.5,857.0" stroke="black" stroke-width="1" /><polygon fill="none" points="781.5,857.0 769.5,829.0 782.5,810.0 783.5,791.0 779.5,780.0 772.0,772.5 762.0,768.5 724.0,768.5 724.5,857.0 742.5,857.0 743.0,832.5 751.5,833.0 762.0,857.5 781.5,857.0" stroke="black" stroke-width="1" /><polygon fill="none" points="283.0,811.5 270.5,811.0 270.0,787.5 287.5,790.0 289.5,805.0 283.0,811.5" stroke="black" stroke-width="1" /><polygon fill="none" points="420.0,839.5 410.5,839.0 411.0,787.5 424.0,787.5 430.5,794.0 430.5,831.0 426.0,837.5 420.0,839.5" stroke="black" stroke-width="1" /><polygon fill="none" points="757.0,811.5 743.5,811.0 744.0,787.5 757.0,787.5 762.5,792.0 763.5,805.0 757.0,811.5" stroke="black" stroke-width="1" /><polygon fill="none" points="151.5,810.0 156.5,809.0 154.0,804.5 146.5,807.0 151.5,810.0" stroke="black" stroke-width="1" /><polygon fill="none" points="876.5,810.0 873.0,804.5 868.0,804.5 863.5,809.0 876.5,810.0" stroke="black" stroke-width="1" /><polygon fill="none" points="63.5,872.0 76.0,861.5 95.5,861.0 72.0,860.5 64.5,867.0 63.5,872.0" stroke="black" stroke-width="1" /><polygon fill="none" points="959.5,870.0 950.0,860.5 927.5,861.0 946.0,861.5 959.5,870.0" stroke="black" stroke-width="1" /><polygon fill="none" points="75.5,870.0 80.0,866.5 102.5,865.0 78.0,863.5 73.5,868.0 76.0,867.5 75.5,870.0" stroke="black" stroke-width="1" /><polygon fill="none" points="949.5,868.0 942.0,862.5 922.5,864.0 949.5,868.0" stroke="black" stroke-width="1" /><polygon fill="none" points="74.5,865.0 74.5,865.0" stroke="black" stroke-width="1" /><polygon fill="none" points="78.0,866.5 78.0,866.5" stroke="black" stroke-width="1" /><polygon fill="none" points="77.0,867.5 77.0,867.5" stroke="black" stroke-width="1" /><polygon fill="none" points="321.5,900.0 304.5,900.0 321.5,900.0" stroke="black" stroke-width="1" /><polygon fill="none" points="137.5,930.0 144.5,929.0 138.0,923.5 122.0,923.5 117.5,928.0 137.5,930.0" stroke="black" stroke-width="1" /><polygon fill="none" points="181.5,930.0 185.5,928.0 181.0,923.5 159.5,925.0 161.0,929.5 181.5,930.0" stroke="black" stroke-width="1" /><polygon fill="none" points="309.5,930.0 315.5,927.0 309.0,923.5 292.0,924.5 290.5,927.0 295.0,930.5 309.5,930.0" stroke="black" stroke-width="1" /><polygon fill="none" points="775.5,930.0 776.5,925.0 774.0,923.5 756.0,924.5 754.5,929.0 775.5,930.0" stroke="black" stroke-width="1" /><polygon fill="none" points="814.5,930.0 820.0,929.5 820.5,927.0 815.0,923.5 802.0,923.5 795.5,929.0 814.5,930.0" stroke="black" stroke-width="1" /><polygon fill="none" points="866.5,929.0 865.0,923.5 845.5,925.0 846.0,929.5 866.5,929.0" stroke="black" stroke-width="1" /><polygon fill="none" points="903.5,930.0 907.5,928.0 904.0,923.5 885.5,925.0 887.0,929.5 903.5,930.0" stroke="black" stroke-width="1" /><polygon fill="none" points="752.5,930.0 751.0,926.5 752.5,930.0" stroke="black" stroke-width="1" /><polygon fill="none" points="289.5,929.0 289.5,929.0" stroke="black" stroke-width="1" /><polygon fill="none" points="794.5,929.0 791.5,929.0 794.5,929.0" stroke="black" stroke-width="1" /><polygon fill="none" points="512.5,997.0 516.5,991.0 514.0,987.5 509.0,987.5 506.5,994.0 512.5,997.0" stroke="black" stroke-width="1" /></svg>